<?xml version="1.0" encoding="UTF-8" standalone="no"?>
<!-- Created with Inkscape (http://www.inkscape.org/) -->

<svg
   xmlns:dc="http://purl.org/dc/elements/1.1/"
   xmlns:cc="http://creativecommons.org/ns#"
   xmlns:rdf="http://www.w3.org/1999/02/22-rdf-syntax-ns#"
   xmlns:svg="http://www.w3.org/2000/svg"
   xmlns="http://www.w3.org/2000/svg"
   version="1.2"
   width="800"
   height="600"
   viewBox="0 0 800 600"
   id="Layer_1"
   xml:space="preserve"><metadata
     id="metadata17"><rdf:RDF><cc:Work
         rdf:about=""><dc:format>image/svg+xml</dc:format><dc:type
           rdf:resource="http://purl.org/dc/dcmitype/StillImage" /><dc:title></dc:title></cc:Work></rdf:RDF></metadata><defs
     id="defs15" /><g
     id="g3"><path
       d="m 27.047,4.212 v 29 H 13.984 v -5.375 c 0,-1.938 -3.875,6.5 -18.438,6.5 -13,0 -22.594,-7.25 -22.594,-20.125 0,-12.875 8.439,-19.875 22.72,-19.875 10.626,0 18.094,0 18.094,0 0,-4.221 2.625,-17.125 -13.718,-17.125 -5.432,0 -10.095,-0.375 -15.665,6.196 l -8.961,-8.071 c 5.172,-4.861 9.763,-10.241 25.376,-9.625 17.601,0.694 25.915,7.353 26.239,22.682"
       id="path5"
       style="fill:none;stroke:#0067b4;stroke-width:2.5" /><path
       d="m 13.755,4.212 c 1.104,13.062 -2.5,18.292 -13.332,18.792 -11.005,0.508 -14.334,-4.083 -14.334,-9.833 0,-7.358 7.167,-8.917 7.167,-8.917"
       id="path7"
       style="fill:none;stroke:#ec1e24;stroke-width:2.5;stroke-linecap:round;stroke-linejoin:round" /></g><circle
     cx="0"
     cy="0"
     r="3.938"
     id="circle9"
     style="fill:#0067b4" /><circle
     cx="0"
     cy="0"
     r="3.938"
     id="circle11"
     style="fill:#ec1e24" /></svg>