<?xml version="1.0" encoding="UTF-8" standalone="no"?>
<!-- Created with Inkscape (http://www.inkscape.org/) -->

<svg
   xmlns:osb="http://www.openswatchbook.org/uri/2009/osb"
   xmlns:dc="http://purl.org/dc/elements/1.1/"
   xmlns:cc="http://creativecommons.org/ns#"
   xmlns:rdf="http://www.w3.org/1999/02/22-rdf-syntax-ns#"
   xmlns:svg="http://www.w3.org/2000/svg"
   xmlns="http://www.w3.org/2000/svg"
   xmlns:xlink="http://www.w3.org/1999/xlink"
   xmlns:sodipodi="http://sodipodi.sourceforge.net/DTD/sodipodi-0.dtd"
   xmlns:inkscape="http://www.inkscape.org/namespaces/inkscape"
   width="744.09003"
   height="1052.36"
   id="svg3585"
   version="1.1"
   inkscape:version="0.48.2 r9819"
   sodipodi:docname="arcos2.inkscape.svg">
  <defs
     id="defs3587">
    <linearGradient
       id="linearGradient4803"
       osb:paint="solid">
      <stop
         style="stop-color:#000000;stop-opacity:1;"
         offset="0"
         id="stop4805" />
    </linearGradient>
  </defs>
  <sodipodi:namedview
     id="base"
     pagecolor="#ffffff"
     bordercolor="#666666"
     borderopacity="1.0"
     inkscape:pageopacity="0.0"
     inkscape:pageshadow="2"
     inkscape:zoom="0.98994949"
     inkscape:cx="269.85491"
     inkscape:cy="1123.7143"
     inkscape:document-units="px"
     inkscape:current-layer="svg3585"
     showgrid="false"
     showguides="true"
     inkscape:guide-bbox="true"
     inkscape:window-width="1916"
     inkscape:window-height="1156"
     inkscape:window-x="216"
     inkscape:window-y="379"
     inkscape:window-maximized="0" />
  <metadata
     id="metadata3590">
    <rdf:RDF>
      <cc:Work
         rdf:about="">
        <dc:format>image/svg+xml</dc:format>
        <dc:type
           rdf:resource="http://purl.org/dc/dcmitype/StillImage" />
        <dc:title></dc:title>
      </cc:Work>
    </rdf:RDF>
  </metadata>
  <g
     inkscape:label="Layer 1"
     inkscape:groupmode="layer"
     id="layer1"
     transform="translate(0,-0.00218262)"
     style="display:none">
    <image
       y="-231.42857"
       x="-205"
       id="image3679"
       xlink:href="file:///Users/fabricio/trampos/projeto-saraiva/infografico.png"
       height="472"
       width="463" />
  </g>
  <g
     inkscape:groupmode="layer"
     id="layer2"
     inkscape:label="vetor"
     transform="translate(0,-0.00218262)"
     style="display:inline">
    <g
       id="trilha_0">
      <path
         inkscape:connector-curvature="0"
         id="arco_acompanha"
         transform="translate(0,0.00218262)"
         d="M 22.71875,-116.8125 16.625,-85.4375 C 56.722232,-77.679333 87,-42.363783 87,0 87,34.903031 66.444956,64.984721 36.78125,78.84375 l 13.5,29 C 84.804775,91.745165 109.54411,60.111379 116.8125,22.71875 129.35283,-41.795639 87.233139,-104.27217 22.71875,-116.8125 z"
         style="opacity:0.39655175;fill:#d1d2d4;fill-opacity:1" />
    </g>
    <g
       id="trilha_1">
      <path
         inkscape:connector-curvature="0"
         id="arco_avaliacao"
         transform="translate(0,0.00218262)"
         d="m -2.4375,-154.03125 c -60.005886,0.97054 -116.44801,37.19972 -140.34375,96.34375 l 32.4375,13.09375 C -92.694103,-88.212448 -49.946555,-119 0,-119 c 29.868635,0 57.16724,11.01207 78.0625,29.1875 l 22.96875,-26.40625 c -12.876768,-11.1936 -27.524246,-20.17101 -43.34375,-26.5625 -19.714676,-7.96525 -40.123038,-11.57351 -60.125,-11.25 z"
         style="opacity:0.39655175;fill:#9ac946;fill-opacity:1" />
      <path
         inkscape:connector-curvature="0"
         id="arco_licoes"
         transform="translate(0,0.00218262)"
         d="M 101.03125,-116.21875 78.0625,-89.8125 C 103.14443,-67.995358 119,-35.85325 119,0 c 0,16.504675 -3.36417,32.211598 -9.4375,46.5 L 141.75,60.15625 c 26.06834,-61.4131767 9.63309,-132.604813 -40.71875,-176.375 z"
         style="opacity:0.39655175;fill:#007882;fill-opacity:1" />
    </g>
    <g
       id="trilha_2">
      <path
         inkscape:connector-curvature="0"
         id="arco_midiateca"
         transform="translate(0,0.00218262)"
         d="m 61.21875,-177.75 -11.0625,32.125 c 32.714329,11.26351 60.44727,33.22217 79,61.71875 l 28.5,-18.5 c -22.84609,-35.1799 -56.77562,-61.68707 -96.4375,-75.34375 z"
         style="opacity:0.39655175;fill:#44a1d0;fill-opacity:1" />
      <path
         inkscape:connector-curvature="0"
         id="arco_ebooks"
         transform="translate(0,0.00218262)"
         d="m 157.65625,-102.40625 -28.5,18.5 C 144.87261,-59.766273 154,-30.952728 154,0 c 0,42.525926 -17.22523,81.037731 -45.09375,108.90625 l 24.03125,24.03125 c 62.76685,-62.766841 73.06402,-160.89855 24.71875,-235.34375 z"
         style="opacity:0.39655175;fill:#363390;fill-opacity:1" />
      <path
         style="opacity:0.39655175;fill:#f2812e;fill-opacity:1"
         d="M 108.90625,108.90625 C 81.037731,136.77477 42.525926,154 0,154 c -1.7996803,0 -3.5902408,-0.0325 -5.375,-0.0937 l -1.1875,33.9687 c 52.10698,1.81962 102.632343,-18.06984 139.5,-54.9375 l -24.03125,-24.03125 z"
         transform="translate(0,0.00218262)"
         id="arco_saraiva"
         inkscape:connector-curvature="0" />
    </g>
    <g
       id="trilha_3"
       style="fill:#902a8e;fill-opacity:1">
      <path
         inkscape:connector-curvature="0"
         id="arco_aplicativos"
         transform="translate(0,0.00218262)"
         d="m 163.09375,-152.09375 -25.59375,23.875 c 25.00418,26.80328 42.26794,60.936715 48.21875,98.8125 L 220.25,-34.875 c -6.95144,-43.889678 -26.85045,-84.71976 -57.15625,-117.21875 z"
         style="opacity:0.39655175;fill:#902a8e;fill-opacity:1" />
    </g>
  </g>
</svg>
