<?xml version="1.0" encoding="UTF-8" standalone="no"?>
<!-- Created with Inkscape (http://www.inkscape.org/) -->

<svg
   xmlns:dc="http://purl.org/dc/elements/1.1/"
   xmlns:cc="http://creativecommons.org/ns#"
   xmlns:rdf="http://www.w3.org/1999/02/22-rdf-syntax-ns#"
   xmlns:svg="http://www.w3.org/2000/svg"
   xmlns="http://www.w3.org/2000/svg"
   xmlns:xlink="http://www.w3.org/1999/xlink"
   xmlns:sodipodi="http://sodipodi.sourceforge.net/DTD/sodipodi-0.dtd"
   xmlns:inkscape="http://www.inkscape.org/namespaces/inkscape"
   width="744.09003"
   height="1052.36"
   id="svg3585"
   version="1.1"
   inkscape:version="0.48.2 r9819"
   sodipodi:docname="arcos4.inkscape.svg">
  <defs
     id="defs3587">
    <pattern
       patternUnits="userSpaceOnUse"
       width="119"
       height="198.625"
       patternTransform="translate(0,-119)"
       id="pattern4649">
      <path
         sodipodi:open="true"
         sodipodi:end="7.0162236"
         sodipodi:start="4.712389"
         sodipodi:type="arc"
         style="fill:none;stroke:#d1d2d4;stroke-width:34;stroke-linecap:butt;stroke-miterlimit:4;stroke-opacity:1;stroke-dasharray:none"
         id="bola2"
         sodipodi:cx="0"
         sodipodi:cy="0"
         sodipodi:rx="102"
         sodipodi:ry="102"
         d="M 2.0007616e-6,-102 A 102,102 0 0 1 75.800772,68.251322"
         transform="translate(0,119)" />
    </pattern>
  </defs>
  <sodipodi:namedview
     id="base"
     pagecolor="#ffffff"
     bordercolor="#666666"
     borderopacity="1.0"
     inkscape:pageopacity="0.0"
     inkscape:pageshadow="2"
     inkscape:zoom="1.4"
     inkscape:cx="71.077095"
     inkscape:cy="1132.7495"
     inkscape:document-units="px"
     inkscape:current-layer="layer2"
     showgrid="false"
     showguides="true"
     inkscape:guide-bbox="true"
     inkscape:window-width="1312"
     inkscape:window-height="1043"
     inkscape:window-x="515"
     inkscape:window-y="24"
     inkscape:window-maximized="0" />
  <metadata
     id="metadata3590">
    <rdf:RDF>
      <cc:Work
         rdf:about="">
        <dc:format>image/svg+xml</dc:format>
        <dc:type
           rdf:resource="http://purl.org/dc/dcmitype/StillImage" />
        <dc:title></dc:title>
      </cc:Work>
    </rdf:RDF>
  </metadata>
  <g
     inkscape:label="Layer 1"
     inkscape:groupmode="layer"
     id="layer1"
     transform="translate(0,-0.00218262)"
     style="display:inline">
    <image
       y="-230.7807"
       x="-206.5"
       id="image5619"
       xlink:href="file:///Users/fabricio/trampos/projeto-saraiva/infografico.png"
       height="472"
       width="463" />
  </g>
  <g
     inkscape:groupmode="layer"
     id="layer3"
     inkscape:label="clip"
     style="opacity:0.53448277;display:inline"
     sodipodi:insensitive="true">
    <path
       style="fill:#850000;fill-opacity:1;stroke:none"
       d="m 0,-300 c -165.68542,0 -300,134.31458 -300,300 0,165.68542 134.31458,300 300,300 C 165.68542,300 300,165.68542 300,0 300,-165.68542 165.68542,-300 0,-300 z m 0,215 c 46.944204,0 85,38.055796 85,85 0,46.944204 -38.055796,85 -85,85 -46.944204,0 -85,-38.055796 -85,-85 0,-46.944204 38.055796,-85 85,-85 z"
       id="path4629"
       inkscape:connector-curvature="0" />
  </g>
  <g
     inkscape:groupmode="layer"
     id="layer2"
     inkscape:label="vetor"
     transform="translate(0,-0.00218262)"
     style="opacity:0.55603452;display:inline">
    <path
       style="fill:#902a8e"
       d="m 161.99158,-150.56406 -24.86602,23.18795 c 23.52081,25.22299 39.61027,56.468827 46.48609,90.264549 l 33.31473,-6.796425 c -8.12549,-39.938037 -27.13911,-76.848844 -54.9348,-106.656074 z"
       id="arco_aplicativos"
       inkscape:connector-curvature="0"
       inkscape:transform-center-x="-177.02597"
       inkscape:transform-center-y="-94.33335" />
    <path
       style="fill:#f2812e"
       d="m 57.917234,-177.82463 -10.506578,32.33592 c 29.863621,9.70328 56.011684,28.34137 74.908954,53.418901 39.9309,52.990088 41.20129,125.484482 3.14405,179.835856 -22.74771,32.487093 -57.19567,54.877963 -96.126435,62.445343 l 6.469456,33.38305 C 83.375988,174.3479 125.52689,146.99542 153.3222,107.2996 c 46.42882,-66.307207 44.86182,-155.178081 -3.85279,-219.82456 -23.09417,-30.647 -55.056143,-53.44139 -91.552176,-65.29967 z"
       id="arco_saraiva"
       inkscape:connector-curvature="0"
       inkscape:transform-center-x="-108.22038"
       inkscape:transform-center-y="2.4586154" />
    <path
       style="fill:#007882"
       d="m -141.8819,-57.297271 31.52426,12.736625 c 24.695277,-61.122964 93.790091,-90.451974 154.913059,-65.756694 6.423101,2.5951 12.59828,5.74746 18.473167,9.41849 37.660564,23.532932 59.072164,65.986809 55.587904,110.2584393 l 33.87457,2.6649347 c 4.47377,-56.844643 -23.08091,-111.555297 -71.436974,-141.771514 -7.553418,-4.7199 -15.503778,-8.75805 -23.762043,-12.0946 -78.159937,-31.57867 -167.595273,6.38438 -199.173943,84.544319 z"
       id="arco_licoes"
       inkscape:connector-curvature="0"
       inkscape:transform-center-x="-5.5408663"
       inkscape:transform-center-y="-70.498091" />
    <path
       style="fill:#d1d2d4"
       d="m 20.702281,-117.18879 -5.904038,33.483468 c 46.429316,8.186743 77.135306,52.039439 68.948564,98.468755 -3.648301,20.69054 -14.832246,39.282935 -31.388135,52.217813 l 20.946675,26.79442 C 96.47483,75.673682 112.12458,49.623276 117.23027,20.667471 128.60779,-43.857651 85.227403,-105.81127 20.702281,-117.18879 z"
       id="arco_acompanha"
       inkscape:connector-curvature="0"
       inkscape:transform-center-x="-66.920567"
       inkscape:transform-center-y="-11.926246" />
  </g>
</svg>
