<?xml version="1.0" encoding="UTF-8" standalone="no"?>
<!-- Created with Inkscape (http://www.inkscape.org/) -->

<svg
   xmlns:dc="http://purl.org/dc/elements/1.1/"
   xmlns:cc="http://creativecommons.org/ns#"
   xmlns:rdf="http://www.w3.org/1999/02/22-rdf-syntax-ns#"
   xmlns:svg="http://www.w3.org/2000/svg"
   xmlns="http://www.w3.org/2000/svg"
   xmlns:xlink="http://www.w3.org/1999/xlink"
   xmlns:sodipodi="http://sodipodi.sourceforge.net/DTD/sodipodi-0.dtd"
   xmlns:inkscape="http://www.inkscape.org/namespaces/inkscape"
   width="744.09003"
   height="1052.36"
   id="svg3585"
   version="1.1"
   inkscape:version="0.48.2 r9819"
   sodipodi:docname="arcos4.inkscape.svg">
  <defs
     id="defs3587">
    <pattern
       patternUnits="userSpaceOnUse"
       width="119"
       height="198.625"
       patternTransform="translate(0,-119)"
       id="pattern4649">
      <path
         sodipodi:open="true"
         sodipodi:end="7.0162236"
         sodipodi:start="4.712389"
         sodipodi:type="arc"
         style="fill:none;stroke:#d1d2d4;stroke-width:34;stroke-linecap:butt;stroke-miterlimit:4;stroke-opacity:1;stroke-dasharray:none"
         id="bola2"
         sodipodi:cx="0"
         sodipodi:cy="0"
         sodipodi:rx="102"
         sodipodi:ry="102"
         d="M 2.0007616e-6,-102 A 102,102 0 0 1 75.800772,68.251322"
         transform="translate(0,119)" />
    </pattern>
  </defs>
  <sodipodi:namedview
     id="base"
     pagecolor="#ffffff"
     bordercolor="#666666"
     borderopacity="1.0"
     inkscape:pageopacity="0.0"
     inkscape:pageshadow="2"
     inkscape:zoom="0.98994949"
     inkscape:cx="71.077095"
     inkscape:cy="1018.4638"
     inkscape:document-units="px"
     inkscape:current-layer="layer2"
     showgrid="false"
     showguides="true"
     inkscape:guide-bbox="true"
     inkscape:window-width="1312"
     inkscape:window-height="1043"
     inkscape:window-x="515"
     inkscape:window-y="24"
     inkscape:window-maximized="0" />
  <metadata
     id="metadata3590">
    <rdf:RDF>
      <cc:Work
         rdf:about="">
        <dc:format>image/svg+xml</dc:format>
        <dc:type
           rdf:resource="http://purl.org/dc/dcmitype/StillImage" />
        <dc:title></dc:title>
      </cc:Work>
    </rdf:RDF>
  </metadata>
  <g
     inkscape:label="Layer 1"
     inkscape:groupmode="layer"
     id="layer1"
     transform="translate(0,-0.00218262)"
     style="display:none"
     sodipodi:insensitive="true">
    <image
       y="-235.01582"
       x="-200.20123"
       id="image3679"
       xlink:href="file:///Users/fabricio/trampos/projeto-saraiva/infografico.png"
       height="472"
       width="463"
       transform="matrix(0.94012085,-0.3408413,0.3408413,0.94012085,0,0)"
       inkscape:transform-center-x="-28.904145"
       inkscape:transform-center-y="-6.5277429" />
  </g>
  <g
     inkscape:groupmode="layer"
     id="layer3"
     inkscape:label="clip"
     style="opacity:0.53448277;display:inline"
     sodipodi:insensitive="true">
    <path
       style="fill:#850000;fill-opacity:1;stroke:none"
       d="m 0,-300 c -165.68542,0 -300,134.31458 -300,300 0,165.68542 134.31458,300 300,300 C 165.68542,300 300,165.68542 300,0 300,-165.68542 165.68542,-300 0,-300 z m 0,215 c 46.944204,0 85,38.055796 85,85 0,46.944204 -38.055796,85 -85,85 -46.944204,0 -85,-38.055796 -85,-85 0,-46.944204 38.055796,-85 85,-85 z"
       id="path4629"
       inkscape:connector-curvature="0" />
  </g>
  <g
     inkscape:groupmode="layer"
     id="layer2"
     inkscape:label="vetor"
     transform="translate(0,-0.00218262)"
     style="opacity:0.55603452;display:inline">
    <path
       style="fill:#902a8e"
       d="m 0,-221 0,34 c 34.488083,0 68.312826,9.54253 97.71875,27.5625 l 17.75,-29 C 80.718349,-209.73257 40.756233,-221 0,-221 z"
       id="arco_aplicativos"
       inkscape:connector-curvature="0" />
    <path
       style="fill:#f2812e"
       d="m 146.3125,44.71875 c -11.59529,37.926493 -37.43809,69.86648 -72.125,89.09375 l 16.46875,29.75 c 42.38376,-23.49371 74.01927,-62.53281 88.1875,-108.875 L 146.3125,44.71875 z"
       id="arco_saraiva"
       inkscape:connector-curvature="0" />
    <path
       style="fill:#363390"
       d="m 107.25,-153.1875 -19.5,27.84375 c 54.35138,38.057242 77.96159,106.610936 58.5625,170.0625 l 32.53125,9.96875 c 23.66637,-77.409194 -5.28654,-161.44619 -71.59375,-207.875 z"
       id="arco_ebooks"
       inkscape:connector-curvature="0" />
    <path
       style="fill:#44a1d0"
       d="m 0,-187 0,34 c 31.400469,0 62.028241,9.64568 87.75,27.65625 l 19.5,-27.84375 C 75.815695,-175.19804 38.3742,-187 0,-187 z"
       id="arco_midiateca"
       inkscape:connector-curvature="0" />
    <path
       style="fill:#007882"
       d="M 117.1875,20.65625 C 109.47604,64.390112 78.134416,100.1461 35.78125,113.5 L 46,145.90625 C 100.38134,128.75988 140.78601,82.716655 150.6875,26.5625 l -33.5,-5.90625 z"
       id="arco_licoes"
       inkscape:connector-curvature="0" />
    <path
       style="fill:#9ac946"
       d="m 0,-153 0,34 c 65.923244,0 119,53.076756 119,119 0,6.9275378 -0.60955,13.833957 -1.8125,20.65625 l 33.5,5.90625 C 152.23415,17.790989 153,8.9068261 153,0 153,-84.298208 84.298208,-153 0,-153 z"
       id="arco_avaliacao"
       inkscape:connector-curvature="0" />
    <path
       style="fill:#d1d2d4"
       d="m 0,-119 0,34 c 47.145563,10e-7 85.000001,37.854437 85,85 0,21.009725 -7.7855,41.261732 -21.84375,56.875 L 88.4375,79.625 C 108.11161,57.774688 119,29.402495 119,0 119,-65.520526 65.520526,-119 0,-119 z"
       id="arco_acompanha"
       inkscape:connector-curvature="0" />
  </g>
</svg>
