<svg
  id="mySVG"
  xmlns:dc="http://purl.org/dc/elements/1.1/">
  <defs>
    <marker id="logo_bola_azul" viewBox = "-5 -5 10 10" refX = "0" refY = "0">
        <circle
         cx="0"
         cy="0"
         r="3.938"
         style="fill:#0067b4" />
    </marker>
    <marker id="logo_bola_vermelha" viewBox = "-5 -5 10 10" refX = "0" refY = "0">
      <circle
        cx="0"
        cy="0"
        r="3.938"
        style="fill:#ec1e24" />
    </marker>
    <marker id="ponta_linha" markerUnits="userSpaceOnUse" refX = "5" refY = "5" markerWidth="10" markerHeight="10">
      <circle cx="5" cy="5" r="1.25" style="fill:#242967" />
    </marker>
    <clipPath id="clip_trilha_1">
      <path d="m -71.858492,-135.08148 15.962033,30.02021 c 58.2067692,-30.94908 129.988792,-9.00312 160.937879,49.203652 3.25229,6.116652 5.95645,12.500828 8.09718,19.089305 16.19011,49.828046 -1.99161,104.217659 -44.908873,134.268659 L 87.744141,125.34858 C 142.78889,86.805845 166.25524,16.627658 145.49016,-47.280703 142.7378,-55.751592 139.24314,-63.955387 135.06164,-71.81965 95.486025,-146.25055 2.5724145,-174.65709 -71.858492,-135.08148 z" />
    </clipPath>
    <clipPath id="clip_trilha_2">
      <path d="m 57.917234,-177.82463 -10.506578,32.33592 c 29.863621,9.70328 56.011684,28.34137 74.908954,53.418901 39.9309,52.990088 41.20129,125.484482 3.14405,179.835856 -22.74771,32.487093 -57.19567,54.877963 -96.126435,62.445343 l 6.469456,33.38305 C 83.375988,174.3479 125.52689,146.99542 153.3222,107.2996 c 46.42882,-66.307207 44.86182,-155.178081 -3.85279,-219.82456 -23.09417,-30.647 -55.056143,-53.44139 -91.552176,-65.29967 z" />
    </clipPath>
    <clipPath id="clip_trilha_3">
      <path d="m 161.99158,-150.56406 -24.86602,23.18795 c 23.52081,25.22299 39.61027,56.468827 46.48609,90.264549 l 33.31473,-6.796425 c -8.12549,-39.938037 -27.13911,-76.848844 -54.9348,-106.656074 z" />
    </clipPath>

  </defs>
  <g
    id="svg-stage" 
    transform="translate(483, 346) scale(1.31,1.31)"
    >
    <g
      id="trilha_2"
      clip-path="url(#clip_trilha_2)"
      transform="scale(1.010)">
      <g class="item" id="item_midiateca">
        <path
          d="m 0,-187 0,34 c 31.400469,0 62.028241,9.64568 87.75,27.65625 l 19.5,-27.84375 C 75.815695,-175.19804 38.3742,-187 0,-187 z"
          id="shape_midiateca"
          style="fill:#902a8e;stroke:none;" />
        <path
          d="M 3.3346027e-6,-170 A 170,170 0 0 1 97.507992,-139.25585"
          id="arco_midiateca"
          style="fill:none;stroke:none;" />
        <text
          dx="20"
           dy="5.5">
          <textPath xlink:href = "#arco_midiateca">
            MIDIATECA
          </textPath>
        </text>
      </g>
      <g class="item" id="item_saraiva">
        <path
          d="m 146.3125,44.71875 c -11.59529,37.926493 -37.43809,69.86648 -72.125,89.09375 l 16.46875,29.75 c 42.38376,-23.49371 74.01927,-62.53281 88.1875,-108.875 L 146.3125,44.71875 z"
          id="shape_saraiva"
          style="fill:#363390;stroke:none;" />
        <path
          d="M 162.57181,49.703189 A 170,170 0 0 1 82.417642,148.68535"
          id="arco_saraiva"
          style="fill:none;stroke:none;" />
        <text
          dx="18"
           dy="5.5">
          <textPath xlink:href = "#arco_saraiva">
            SARAIVA EDUCA
          </textPath>
        </text>
      </g>
    </g>
    <g
      id="trilha_1"
      clip-path="url(#clip_trilha_1)"
      transform="scale(1.015)">
      <g class="item"  id="item_licoes">
        <path
          d="M 117.1875,20.65625 C 108.08967,72.252602 66.501785,111.73998 14.5,118.125 l 4.15625,33.75 C 85.352596,143.68572 139.01882,92.738847 150.6875,26.5625 l -33.5,-5.90625 z"
          id="shape_licoes"
          style="fill:#007882;stroke:none;" />
        <path
          d="M 133.93385,23.616153 A 136,136 0 0 1 16.574228,134.98628"
          id="arco_licoes"
          style="fill:none;stroke:none;stroke-width:34px;" />
        <text
          dx="15"
           dy="5.5">
          <textPath xlink:href = "#arco_licoes">
            ATIVIDADES MULTIMÍDIA
          </textPath>
        </text>
      </g>
      <g class="item" id="item_avaliacao">
        <path
          d="m 0,-153 0,34 c 65.923244,0 119,53.076756 119,119 0,6.9275378 -0.60955,13.833957 -1.8125,20.65625 l 33.5,5.90625 C 152.23415,17.790989 153,8.9068261 153,0 153,-84.298208 84.298208,-153 0,-153 z"
          id="shape_avaliacao"
          style="fill:#9ac946;stroke:none;" />
        <path
          d="M 2.6676822e-6,-136 A 136,136 0 0 1 133.93386,23.616148"
          id="arco_avaliacao"
          style="fill:none;stroke:none;" />
        <text
          dx="15"
           dy="5.5">
          <textPath xlink:href = "#arco_avaliacao">
            AVALIAÇÃO E BANCO DE QUESTÕES
          </textPath>
        </text>
      </g>
    </g>
    <g id="linhas_over" transform="scale(1.01) translate(0)"  fill="none" stroke="#242967" stroke-width="0.5">
      <polyline style="marker-start:url(#ponta_linha);marker-end:url(#ponta_linha);" id="linha_avaliacao"    points="64.605,-133.291 96.89,-199.9 221.545,-199.9 "/>
      <polyline style="marker-start:url(#ponta_linha);marker-end:url(#ponta_linha);" id="linha_licoes"       points="143.026,38.251 213.616,57.129 259.878,57.129 "/>
      <polyline style="marker-start:url(#ponta_linha);marker-end:url(#ponta_linha);" id="linha_ebooks"      points="103.458,147.075 126.651,180.0 185.546,180.0 "/>
      <line     style="marker-start:url(#ponta_linha);marker-end:url(#ponta_linha);" id="linha_saraiva"       x1="178.872" y1="-10.0" x2="259.878" y2="-10.0"/>
      <polyline style="marker-start:url(#ponta_linha);marker-end:url(#ponta_linha);" id="linha_midiateca"    points="105.491,-147.038 128,-178.0 221.545,-178.0 "/>
      <polyline style="marker-start:url(#ponta_linha);marker-end:url(#ponta_linha);" id="linha_aplicativos"  points="189.061,-96.963 226.254,-116.039 259.878,-116.039 "/>
    </g>
    <g id="mouse_overs" style="opacity:0;">
      <path
        d="m 0,-221 0,34 c 34.488083,0 68.312826,9.54253 97.71875,27.5625 l 17.75,-29 C 80.718349,-209.73257 40.756233,-221 0,-221 z"
        id="hover_aplicativos"
        style="fill:#902a8e;fill-opacity:1;stroke:none;" />
      <path
        d="m 0,-187 0,34 c 31.400469,0 62.028241,9.64568 87.75,27.65625 l 19.5,-27.84375 C 75.815695,-175.19804 38.3742,-187 0,-187 z"
        id="hover_midiateca"
        style="fill:#44a1d0;stroke:none;" />
      <path
        d="m 146.3125,44.71875 c -11.59529,37.926493 -37.43809,69.86648 -72.125,89.09375 l 16.46875,29.75 c 42.38376,-23.49371 74.01927,-62.53281 88.1875,-108.875 L 146.3125,44.71875 z"
        id="hover_saraiva"
        style="fill:#f2812e;stroke:none;" />
      <path
        d="M 117.1875,20.65625 C 108.08967,72.252602 66.501785,111.73998 14.5,118.125 l 4.15625,33.75 C 85.352596,143.68572 139.01882,92.738847 150.6875,26.5625 l -33.5,-5.90625 z"
        id="hover_licoes"
        style="fill:#007882;stroke:none;" />
      <path
        d="m 0,-153 0,34 c 65.923244,0 119,53.076756 119,119 0,6.9275378 -0.60955,13.833957 -1.8125,20.65625 l 33.5,5.90625 C 152.23415,17.790989 153,8.9068261 153,0 153,-84.298208 84.298208,-153 0,-153 z"
        id="hover_avaliacao"
        style="fill:#9ac946;stroke:none;" />
    </g>
    <g
     id="logo" transform="scale(1.4) translate(2,-17)">
     <path
       d="m 27.047,4.212 v 29 H 13.984 v -5.375 c 0,-1.938 -3.875,6.5 -18.438,6.5 -13,0 -22.594,-7.25 -22.594,-20.125 0,-12.875 8.439,-19.875 22.72,-19.875 10.626,0 18.094,0 18.094,0 0,-4.221 2.625,-17.125 -13.718,-17.125 -5.432,0 -10.095,-0.375 -15.665,6.196 l -8.961,-8.071 c 5.172,-4.861 9.763,-10.241 25.376,-9.625 17.601,0.694 25.915,7.353 26.239,22.682"
       id="path5"
       style="marker-end:url(#logo_bola_azul);fill:none;stroke:#0067b4;stroke-width:2.5;stroke-linecap:round;stroke-linejoin:round" />
       <path
       d="m 13.755,4.212 c 1.104,13.062 -2.5,18.292 -13.332,18.792 -11.005,0.508 -14.334,-4.083 -14.334,-9.833 0,-7.358 7.167,-8.917 7.167,-8.917"
       id="path7"
       style="marker-end:url(#logo_bola_vermelha);fill:none;stroke:#ec1e24;stroke-width:2.5;stroke-linecap:round;stroke-linejoin:round" /></g>
  </g>
</svg>
