<?xml version="1.0" encoding="UTF-8" standalone="no"?>
<!-- Created with Inkscape (http://www.inkscape.org/) -->

<svg
   xmlns:dc="http://purl.org/dc/elements/1.1/"
   xmlns:cc="http://creativecommons.org/ns#"
   xmlns:rdf="http://www.w3.org/1999/02/22-rdf-syntax-ns#"
   xmlns:svg="http://www.w3.org/2000/svg"
   xmlns="http://www.w3.org/2000/svg"
   xmlns:xlink="http://www.w3.org/1999/xlink"
   version="1.1"
   width="744.09003"
   height="1052.36"
   id="svg3585">
  <defs
     id="defs3587" />
  <metadata
     id="metadata3590">
    <rdf:RDF>
      <cc:Work
         rdf:about="">
        <dc:format>image/svg+xml</dc:format>
        <dc:type
           rdf:resource="http://purl.org/dc/dcmitype/StillImage" />
        <dc:title></dc:title>
      </cc:Work>
    </rdf:RDF>
  </metadata>
  <g
     transform="translate(0,-0.00218262)"
     id="layer1">
    <image
       xlink:href="file:///Users/fabricio/trampos/projeto-saraiva/infografico.png"
       x="-205"
       y="-231.42857"
       width="463"
       height="472"
       id="image3679" />
  </g>
  <g
     transform="translate(0,-0.00218262)"
     id="layer2">
    <path
       d="M 223,0 A 223,223 0 1 1 -223,0 223,223 0 1 1 223,0 z"
       id="bola5"
       style="opacity:0.39655175;fill:#666666;fill-opacity:1" />
    <path
       d="M 188,0 A 188,188 0 1 1 -188,0 188,188 0 1 1 188,0 z"
       id="bola4"
       style="opacity:0.39655175;fill:#999999;fill-opacity:1" />
    <path
       d="M 154,0 A 154,154 0 1 1 -154,0 154,154 0 1 1 154,0 z"
       id="bola3"
       style="opacity:0.39655175;fill:#cccccc;fill-opacity:1" />
    <path
       d="M 119,0 A 119,119 0 1 1 -119,0 119,119 0 1 1 119,0 z"
       id="bola2"
       style="opacity:0.39655175;fill:#e6e6e6;fill-opacity:1" />
    <path
       d="M 87,0 A 87,87 0 1 1 85.678275,-15.10739 L 0,0 z"
       id="bola1"
       style="opacity:0.60775865;fill:#ffff00;fill-opacity:1" />
  </g>
</svg>
